<svg xmlns="http://www.w3.org/2000/svg" viewBox="0 0 214.29 206.77"><defs><style>.cls-1{fill:#fff;}</style></defs><g id="Layer_2" data-name="Layer 2"><g id="Layer_6" data-name="Layer 6"><path d="M106.3,205.81c-28.42,3-47.16-11.12-65.63-30.1-6.92-7.69-15.19-20.6-21.22-29.11-2.63-3.71-.73-4.15,3-6.42,3.49-2.14,10.37-7.89,10.37-7.89,8.88-5.43,14.8-28.13,16.77-31.09C50.45,93.85,54,83.43,53,76c-1.35-9.8-3.63-8,4.93-12.83C65.77,58.77,73.24,48.9,79.16,42c0,0,2.4-4.44,3.45-6.41,2-3.79,2.39-5,6.48-3.12,3.51,1.65,7.18,3.13,10.34,5.32,8.28,5.76,22.25,5,31.54,2.73,9.54-2.34,5-1.07,10.71,6.82,7.71,10.59,17.45,16.75,29.75,21.8,8.47,3.48,19.08,4.48,27.63,0s4.09-4.57,7.9,4.44c11.53,27.31,11.39,67-14.61,90.43-19.15,17.25-39.54,32.69-64.83,39.84A153.71,153.71,0,0,0,106.3,205.81Z"/><path d="M116.2,1c4.88,1,9.82,1.91,14.62,3.15C147,8.34,152.81,17.26,145.57,27a51.94,51.94,0,0,1-8,8.26c-6.69,5.68-16.54,5.55-26.45,3.4-13.72-3-23-9.76-27.48-18.87C78.33,9.07,91.61-1.38,107.84.15c2.76.26,5.52.77,8.28,1.16Z"/><path d="M77,39.56C77,40,62.63,57,57.21,58.9c-10.59,3.74-16,5.44-25.33-.75-4.91-3.25-6.49-8.86-4.55-14.6,3.83-11.3,12.32-19.18,22.1-25.92a69.71,69.71,0,0,1,12.09-6.47c6.66-2.86,11.28-1.38,15,4.69C81.76,24.38,80.33,32.92,77,39.56Z"/><path d="M32.78,125.23c-.74,1-1.22,1.61-1.67,2.25-11.76,16.52-15.9,19.3-26.66,2.61C-5.4,114.8,3.28,98.57,9.53,80.23c1-1.32,4.8-11,10.35-13.88a23.3,23.3,0,0,1,11-2.17c11.82.35,16.86,6.09,16.22,17.62A89.41,89.41,0,0,1,32.78,125.23Z"/><path d="M184.33,69.5c-7.93-.64-14.62-2.27-20-6.3s-11.21-7.74-15.5-12.28C140.29,41.85,143,28.64,154,22.05c6.49-3.88,13.84-5.15,21.23-1.86,18.33,8.15,28.52,20.55,32.44,35.79,1,4-2,7.54-6.85,9.28C195.64,67.14,189.86,68.13,184.33,69.5Z"/><path class="cls-1" d="M103.33,206.07c-2.23-13.94-4.89-38.11,1.4-47.4,0,0,22.21-18.81,24.08-21.68s10.64-11.48,14.39-21.36,7.25-20.88,6-24.87c-.63-1.91-3.37,1-5-1.27-.5-.69-.74,2.21-1.56,5.73-.72,3.08-2,6.53-3.13,9.89,0,0-8,18.85-20.4,16.76,0,0-5.88-3.69-15.57-4.65,0,0-11.89,1-15.64,5.11,0,0-20.65-7.66-26.28-.64s15.64,30,15.64,30,10.32,12.12,18.77,6.7a16.85,16.85,0,0,0,5.63-12.12h.63s.85,16.11-10.21,16-23.89-17.94-23.89-17.94a43.91,43.91,0,0,0-15.33,9.56c-4.73,4.83-7.51,12.53-7.51,17.54,0,3.39-1,8-.56,8.61,12.41,13.65,20.82,16.87,20.82,16.87s12.41,1.82,19.78-3.48c0,0,1.88,3.25.54,11.62a33.51,33.51,0,0,0,8.27,1.64A33.89,33.89,0,0,0,103.33,206.07Z"/></g></g></svg>