<svg xmlns="http://www.w3.org/2000/svg" viewBox="0 0 217.29 210.06"><defs><style>.cls-1{fill:#a6c8ff;}</style></defs><g id="Layer_2" data-name="Layer 2"><g id="Layer_6" data-name="Layer 6"><path class="cls-1" d="M119.2,1c4.88,1,9.82,1.91,14.62,3.15C150,8.34,155.81,17.26,148.57,27a51.94,51.94,0,0,1-8,8.26c-6.69,5.68-16.54,5.55-26.45,3.4-13.72-3-23-9.76-27.48-18.87C81.33,9.07,94.61-1.38,110.84.15c2.76.26,5.52.77,8.28,1.16Z"/><path class="cls-1" d="M79,40.56C79,41,64.63,58,59.21,59.9c-10.59,3.74-16,5.44-25.33-.75-4.91-3.25-6.49-8.86-4.55-14.6,3.83-11.3,12.32-19.18,22.1-25.92a69.71,69.71,0,0,1,12.09-6.47c6.66-2.86,11.28-1.38,15,4.69C83.76,25.38,82.33,33.92,79,40.56Z"/><path class="cls-1" d="M32.78,127.23c-.74,1-1.22,1.61-1.67,2.25-11.76,16.52-15.9,19.3-26.66,2.61C-5.4,116.8,3.28,100.57,9.53,82.23c1-1.32,4.8-11,10.35-13.88a23.3,23.3,0,0,1,11-2.17c11.82.35,16.86,6.09,16.22,17.62A89.41,89.41,0,0,1,32.78,127.23Z"/><path class="cls-1" d="M190.33,70.5c-7.93-.64-14.62-2.27-20-6.3s-11.21-7.74-15.5-12.28C146.29,42.85,149,29.64,160,23.05c6.49-3.88,13.84-5.15,21.23-1.86,18.33,8.15,28.52,20.55,32.44,35.79,1,4-2,7.54-6.85,9.28C201.64,68.14,195.86,69.13,190.33,70.5Z"/><path class="cls-1" d="M69.16,201a64.19,64.19,0,0,0,19.74,7.9c1.28-8.24-.57-11.45-.57-11.45C81.93,202,71.73,201.26,69.16,201Z"/><path class="cls-1" d="M210,77.57c-3.81-9,.69-8.93-7.9-4.44s-19.16,3.48-27.63,0c-12.3-5-22-11.21-29.75-21.8-5.74-7.89-1.17-9.16-10.71-6.82-9.29,2.28-23.26,3-31.54-2.73-3.16-2.19-6.83-3.67-10.34-5.32-4.09-1.91-4.45-.67-6.48,3.12-1,2-3.45,6.41-3.45,6.41C76.24,52.9,68.77,62.77,60.94,67.21c-8.56,4.86-6.28,3-4.93,12.83,1,7.39-2.56,17.81-3.46,25.16-2,3-7.89,25.66-16.77,31.09,0,0-6.88,5.75-10.37,7.89-3.69,2.27-5.59,2.71-3,6.42,6,8.51,14.3,21.42,21.22,29.11,1.33,1.36,2.65,2.69,4,4-.13-1.26.64-5.24.64-8.28,0-5,2.78-12.71,7.51-17.54a43.91,43.91,0,0,1,15.33-9.56S84,166.18,95,166.27s10.21-16,10.21-16h-.63A16.85,16.85,0,0,1,99,162.36c-8.45,5.42-18.77-6.7-18.77-6.7s-21.27-23-15.64-30,26.28.64,26.28.64c3.75-4.15,15.64-5.11,15.64-5.11,9.69,1,15.57,4.65,15.57,4.65,12.44,2.09,20.4-16.76,20.4-16.76,1.17-3.36,2.41-6.81,3.13-9.89.82-3.52,1.06-6.42,1.56-5.73,1.64,2.23,4.38-.64,5,1.27,1.3,4-2.19,15-6,24.87S133.69,138.12,131.81,141s-24.08,21.68-24.08,21.68c-6.29,9.29-3.63,33.45-1.4,47.39,1-.06,2-.14,3-.25a153.71,153.71,0,0,1,21.22-2c25.29-7.15,45.68-22.59,64.83-39.84C221.35,144.58,221.49,104.88,210,77.57Z"/></g></g></svg>