<?xml version="1.0" encoding="utf-8"?>
<!-- Generator: Adobe Illustrator 25.1.0, SVG Export Plug-In . SVG Version: 6.00 Build 0)  -->
<svg version="1.1" id="Layer_1" xmlns="http://www.w3.org/2000/svg" xmlns:xlink="http://www.w3.org/1999/xlink" x="0px" y="0px"
	 viewBox="0 0 1366 768" style="enable-background:new 0 0 1366 768;" xml:space="preserve">
<style type="text/css">
	.st0{opacity:0.2;fill:#FFFFFF;}
	.st1{fill:#9EC4F1;}
</style>
<path class="st0" d="M678.1,765.9C571.3,777.1,498,726.5,431.8,652.8c-26-29-56.9-77.4-79.6-109.4c-10-13.8-2.6-15.6,11.2-24.2
	c13-8.2,39.1-29.8,39.1-29.8c33.5-20.5,55.4-105.7,62.9-116.5c3.3-27.5,16.7-66.6,13-94.5c-5.2-36.8-13.8-29.8,18.6-48
	c29.4-16.7,57.3-53.6,79.6-79.6c0,0,8.9-16.7,13-24.2c7.4-14.1,8.9-19,24.2-11.5c13,6.3,26.8,11.5,38.7,20.1
	c30.9,21.6,83.3,18.6,118.3,10.4c35.7-8.9,18.6-4.1,40.2,25.7c29,39.8,65.5,62.9,111.6,81.9c31.6,13,71.4,16.7,103.8,0
	c32.4-16.7,15.3-17.1,29.8,16.7c43.2,102.3,42.8,251.5-54.7,339.3C929.6,674,853,732,758.1,758.8C692.2,767.4,706,761.8,678.1,765.9
	z"/>
<path class="st0" d="M714.9,3.9c18.2,3.7,36.5,7.1,54.3,11.5c60.3,15.6,81.9,48.7,55.1,84.8c-8.2,11.2-18.6,21.2-29.8,30.9
	c-24.9,21.2-61.4,20.5-98.6,12.7c-51-11.2-85.6-36.5-102.3-70.3c-19.7-39.8,29.8-78.5,90-72.9c10.4,1.1,20.5,3,30.9,4.5
	C714.9,4.6,714.9,4.3,714.9,3.9z"/>
<path class="st0" d="M569.4,147.5c0,1.5-53.6,64.7-73.7,71.8c-39.4,13.8-59.5,20.1-94.1-3c-18.2-11.9-24.2-33.1-16.7-54.3
	c14.1-42,45.8-71.4,82.2-96.4c13.8-9.7,29.4-17.5,45-24.2c24.9-10.8,42-5.2,55.8,17.5C586.9,91,581.7,122.6,569.4,147.5z"/>
<path class="st0" d="M404.6,466c-2.6,3.7-4.5,6-6.3,8.6c-43.9,61.4-59.2,71.8-99.3,9.7c-36.5-56.9-4.5-117.2,19-185.7
	c3.7-4.8,17.9-40.9,38.3-51.7c11.9-6,27.2-8.6,40.9-8.2c43.9,1.5,62.9,22.7,60.3,65.5C454.8,364.4,435.1,418,404.6,466z"/>
<path class="st0" d="M970.5,254.7c-29.8-2.2-54.7-8.6-74.8-23.8c-19.7-14.9-42-29-58-46.1c-32-33.9-22-83.7,19.3-108.3
	c24.2-14.5,52.1-19.3,79.6-7.1c68.8,30.5,107.2,77,121.7,134.3c3.7,15.3-7.4,28.3-25.7,35C1012.9,245.7,991.4,249.5,970.5,254.7z"/>
<path class="st1" d="M681.1,766.7c0,0-21.6-67.3,8.9-111.6c0,0,75.2-62.5,81.5-71.8c6.3-9.3,36.1-38,48.7-70.7
	c12.7-32.7,24.6-69.2,20.1-82.6c-2.2-6.3-11.2,3.3-16.7-4.1c-1.9-2.2-2.6,7.4-5.2,19c-2.6,10-6.7,21.6-10.4,32.7
	c0,0-26.8,62.5-68.8,55.4c0,0-19.7-12.3-52.5-15.3c0,0-40.2,3.3-52.8,16.7c0,0-70-25.3-88.9-2.2c-19,23.1,52.8,99.3,52.8,99.3
	s35,40.2,63.3,22.3c0,0,17.9-13.8,19-40.2h2.2c0,0,3,53.6-34.6,53.2c-37.2-0.4-80.7-59.5-80.7-59.5s-30.1,10-51.7,31.6
	c-16,16-25.3,41.7-25.3,58c0,3.3-1.9,12.3,0.4,14.1c15.6,11.5,45,33.5,90,48C628.6,774.8,681.1,766.7,681.1,766.7z"/>
</svg>
